<?xml version="1.0" encoding="utf-8"?>
<!-- Generator: Adobe Illustrator 24.3.0, SVG Export Plug-In . SVG Version: 6.00 Build 0)  -->
<svg version="1.1" id="Layer_1" xmlns="http://www.w3.org/2000/svg" xmlns:xlink="http://www.w3.org/1999/xlink" x="0px" y="0px"
	 viewBox="0 0 600 600" style="enable-background:new 0 0 600 600;" xml:space="preserve">
<style type="text/css">
	.st0{fill:none;stroke:#000000;stroke-miterlimit:10;}
</style>
<g>
	<path class="st0" d="M514.92,25.05l60.03,60.03c17.79,17.79,17.78,46.65-0.01,64.45l-369,369l-0.01-0.01l-2.46-59.41l-59.58-2.62
		l-0.02-0.02l-3.38-59.67l-57.67-1.38l-1.34-1.34l369-369C468.26,7.27,497.12,7.26,514.92,25.05z"/>
	<path class="st0" d="M49.13,481.08l69.79,69.79l-99.71,37.06c-4.45,1.65-8.78-2.68-7.13-7.13L49.13,481.08z"/>
	<polygon class="st0" points="203.46,459.11 205.92,518.52 205.92,518.54 118.92,550.87 49.13,481.08 80.98,395.36 82.81,395.41 
		140.48,396.79 143.86,456.46 143.86,456.48 143.89,456.48 	"/>
	<polygon class="st0" points="143.86,456.46 143.89,456.48 143.86,456.48 	"/>
	<polygon class="st0" points="205.92,518.54 205.92,518.52 205.93,518.53 	"/>
	<polygon class="st0" points="81.47,394.07 82.81,395.41 80.98,395.36 	"/>
	<line class="st0" x1="80.98" y1="395.37" x2="80.19" y2="395.35"/>
	<line class="st0" x1="118.93" y1="550.88" x2="118.92" y2="550.87"/>
	<line class="st0" x1="296.15" y1="179.38" x2="313.45" y2="196.68"/>
	<line class="st0" x1="296.15" y1="179.38" x2="420.62" y2="303.85"/>
	<line class="st0" x1="327.69" y1="147.84" x2="452.16" y2="272.31"/>
	<line class="st0" x1="358.72" y1="117.15" x2="483.2" y2="241.62"/>
	<line class="st0" x1="389.59" y1="86.28" x2="514.06" y2="210.75"/>
	<line class="st0" x1="140.47" y1="396.79" x2="327.01" y2="210.25"/>
	<line class="st0" x1="203.47" y1="459.11" x2="389.67" y2="272.91"/>
</g>
</svg>
