<?xml version="1.0" encoding="utf-8"?>
<!-- Generator: Adobe Illustrator 24.3.0, SVG Export Plug-In . SVG Version: 6.00 Build 0)  -->
<svg version="1.1" id="Layer_1" xmlns="http://www.w3.org/2000/svg" xmlns:xlink="http://www.w3.org/1999/xlink" x="0px" y="0px"
	 viewBox="0 0 600 600" style="enable-background:new 0 0 600 600;" xml:space="preserve">
<style type="text/css">
	.st0{fill:#3297D3;}
</style>
<g>
	<path class="st0" d="M504.56,299.03V550.6c0,6.39-5.18,11.57-11.57,11.57H359.1V409.31c0-5.44-4.41-9.86-9.85-9.86H247.68
		c-5.45,0-9.86,4.42-9.86,9.86v152.86h-132.4c-6.39,0-11.57-5.18-11.57-11.57V299.03h-1L291.12,120.9c4.98-4.43,12.48-4.43,17.46,0
		l194.98,178.13H504.56z"/>
	<path class="st0" d="M592.62,294.95c0,3.93-1.36,7.88-4.13,11.05c-6.09,6.98-16.78,7.71-23.77,1.63L300,76.81L163.12,196.16
		l-45.57,39.73l-82.28,71.74c-6.98,6.08-17.67,5.35-23.76-1.63c-2.77-3.18-4.13-7.12-4.13-11.05c0-4.71,1.95-9.4,5.76-12.71
		l63.11-55.03V101.59h86.87v49.88l125.6-109.52c3.24-2.82,7.27-4.18,11.28-4.12c4-0.06,8.03,1.3,11.27,4.12l275.59,240.29
		C590.67,285.56,592.62,290.24,592.62,294.95z"/>
</g>
</svg>
