<?xml version="1.0" encoding="utf-8"?>
<!-- Generator: Adobe Illustrator 24.3.0, SVG Export Plug-In . SVG Version: 6.00 Build 0)  -->
<svg version="1.1" id="Layer_1" xmlns="http://www.w3.org/2000/svg" xmlns:xlink="http://www.w3.org/1999/xlink" x="0px" y="0px"
	 viewBox="0 0 608 610" style="enable-background:new 0 0 608 610;" xml:space="preserve">
<style type="text/css">
	.st0{fill:url(#SVGID_1_);}
	.st1{fill:url(#SVGID_2_);}
	.st2{fill:url(#SVGID_3_);}
</style>
<linearGradient id="SVGID_1_" gradientUnits="userSpaceOnUse" x1="275.1671" y1="819.98" x2="-45.5094" y2="585.1465" gradientTransform="matrix(1 0 0 -1 0 860)">
	<stop  offset="0" style="stop-color:#FFFFFF"/>
	<stop  offset="1" style="stop-color:#000000"/>
</linearGradient>
<path class="st0" d="M225.7,93.7V163H98.5c-22.3,0-40.6-15.6-40.6-34.8c0-9.5,4.6-18.1,11.9-24.5c7.3-6.2,17.6-10.3,28.6-10.3
	C98.3,93.7,225.7,93.7,225.7,93.7z"/>
<linearGradient id="SVGID_2_" gradientUnits="userSpaceOnUse" x1="139.1113" y1="338.6463" x2="584.9099" y2="38.9475">
	<stop  offset="0" style="stop-color:#0F63B7"/>
	<stop  offset="0.461" style="stop-color:#0B4A8C"/>
	<stop  offset="1" style="stop-color:#072A54"/>
</linearGradient>
<path class="st1" d="M606.5,128.3c0,9.6-3.9,18.3-10.2,24.6c-6.3,6.3-15,10.2-24.6,10.2h-160v350.4c0,41.6-30,76.3-69.2,83.8
	c-5.3,0.9-10.6,1.5-16.1,1.5c-36.2,0-67.5-23.1-79.8-55.1c-3.7-9.3-5.5-19.6-5.5-30.2V80.7h-205c-18.9,0-34.6-15.6-34.6-34.6
	c0-9.5,3.8-18.3,10.3-24.5c6.4-6.2,15-10.3,24.5-10.3h479.2c19,0,34.6,15.6,34.6,34.8c0,9.5-3.8,18.1-10.2,24.5
	c-6.4,6.4-15,10.2-24.5,10.2h-205v432.8c0,8.8,7.1,15.9,15.9,15.9c8.8,0,15.9-7.1,15.9-15.9V163h-18.7V93.7h251.8
	C592.7,95.5,606.5,110.3,606.5,128.3z"/>
<linearGradient id="SVGID_3_" gradientUnits="userSpaceOnUse" x1="275.1577" y1="-459.9477" x2="-45.5188" y2="-225.1142" gradientTransform="matrix(1 0 0 1 0 500)">
	<stop  offset="0" style="stop-color:#063375"/>
	<stop  offset="1" style="stop-color:#156CFF"/>
</linearGradient>
<path class="st2" d="M225.7,93.8v69.3H98.5c-22.3,0-40.6-15.6-40.6-34.8c0-9.5,4.6-18.1,11.9-24.5c7.3-6.2,17.6-10.3,28.6-10.3
	C98.3,93.8,225.7,93.8,225.7,93.8z"/>
</svg>
