<?xml version="1.0" encoding="utf-8"?>
<!-- Generator: Adobe Illustrator 26.0.1, SVG Export Plug-In . SVG Version: 6.00 Build 0)  -->
<svg version="1.1" id="Layer_1" xmlns="http://www.w3.org/2000/svg" xmlns:xlink="http://www.w3.org/1999/xlink" x="0px" y="0px"
	 viewBox="0 0 256 256" style="enable-background:new 0 0 256 256;" xml:space="preserve">
<style type="text/css">
	.st0{fill:none;stroke:#2C479E;stroke-width:5;stroke-linecap:round;stroke-miterlimit:10;}
	.st1{fill:#475FC4;}
	.st2{fill:#637ED3;}
	.st3{fill:#8FA7E5;}
</style>
<circle class="st0" cx="128" cy="128" r="122.6"/>
<g>
	<path class="st1" d="M128,219.1L128,219.1c-8.1,0-14.6-6.6-14.6-14.6V80.7c0-8.1,6.6-14.6,14.6-14.6h0c8.1,0,14.6,6.6,14.6,14.6
		v123.7C142.6,212.5,136.1,219.1,128,219.1z"/>
	<path class="st2" d="M58.1,121.5L58.1,121.5c-5.7-5.7-5.7-15,0-20.7l59.5-59.5c5.7-5.7,15-5.7,20.7,0l0,0c5.7,5.7,5.7,15,0,20.7
		l-59.5,59.5C73.1,127.2,63.8,127.2,58.1,121.5z"/>
	<path class="st3" d="M197.9,121.5L197.9,121.5c5.7-5.7,5.7-15,0-20.7l-59.5-59.5c-5.7-5.7-15-5.7-20.7,0l0,0
		c-5.7,5.7-5.7,15,0,20.7l59.5,59.5C182.9,127.2,192.2,127.2,197.9,121.5z"/>
</g>
</svg>
