<?xml version="1.0" encoding="utf-8"?>
<!-- Generator: Adobe Illustrator 24.3.0, SVG Export Plug-In . SVG Version: 6.00 Build 0)  -->
<svg version="1.1" id="Layer_1" xmlns="http://www.w3.org/2000/svg" xmlns:xlink="http://www.w3.org/1999/xlink" x="0px" y="0px"
	 viewBox="0 0 256 256" style="enable-background:new 0 0 256 256;" xml:space="preserve">
<style type="text/css">
	.st0{fill:none;stroke:#2C479E;stroke-width:5;stroke-linecap:round;stroke-miterlimit:10;}
	.st1{fill:#00A651;stroke:#2252A4;stroke-width:5;stroke-miterlimit:10;}
</style>
<circle class="st0" cx="128" cy="128" r="123.19"/>
<path class="st1" d="M191.94,91.35l-13.43,13.43c-4.46,4.46-11.69,4.46-16.15,0l-5.62-5.62c-2.89-2.89-7.82-0.84-7.82,3.24v94.83
	c0,3.01-2.44,5.46-5.46,5.46h-30.93c-3.01,0-5.46-2.44-5.46-5.46v-94.83c0-4.08-4.94-6.13-7.82-3.24l-5.62,5.62
	c-4.46,4.46-11.69,4.46-16.15,0L64.06,91.35c-4.46-4.46-4.46-11.69,0-16.15l34.36-34.35l21.56-21.56c4.43-4.43,11.61-4.43,16.04,0
	l21.56,21.56l34.36,34.35C196.4,79.66,196.4,86.89,191.94,91.35z"/>
<line class="st0" x1="109.98" y1="216.98" x2="146.02" y2="216.98"/>
<line class="st0" x1="86.99" y1="231.26" x2="169.01" y2="231.26"/>
</svg>
