<?xml version="1.0" encoding="utf-8"?>
<!-- Generator: Adobe Illustrator 26.0.1, SVG Export Plug-In . SVG Version: 6.00 Build 0)  -->
<svg version="1.1" id="Layer_1" xmlns="http://www.w3.org/2000/svg" xmlns:xlink="http://www.w3.org/1999/xlink" x="0px" y="0px"
	 viewBox="0 0 256 256" style="enable-background:new 0 0 256 256;" xml:space="preserve">
<style type="text/css">
	.st0{fill:#00A651;stroke:#2252A4;stroke-miterlimit:10;}
	.st1{fill:#FF0000;}
	.st2{fill:none;stroke:#2C479E;stroke-width:5;stroke-linecap:round;stroke-miterlimit:10;}
</style>
<g>
	<g>
		<path class="st0" d="M128,100c6.2,0,12.1-1.4,17.2-3.8v112c0,8.1-7.7,14.7-17.2,14.7s-17.2-6.6-17.2-14.7v-112
			C115.9,98.6,121.8,100,128,100z"/>
		<path class="st0" d="M106.9,93.6l-37.5,37.5c-6.7,6.7-17.6,6.7-24.3,0c-6.7-6.7-6.7-17.6,0-24.3l48-48c-0.4,2-0.5,4.1-0.5,6.2
			C92.5,76.8,98.2,87.2,106.9,93.6z"/>
		<path class="st0" d="M211,131.2c-6.7,6.7-17.6,6.7-24.3,0l-37.5-37.5c8.7-6.5,14.4-16.9,14.4-28.5c0-2.1-0.2-4.2-0.5-6.2l48,48
			C217.7,113.6,217.7,124.5,211,131.2z"/>
		<path class="st0" d="M107.3,52l-1,1.7C106.6,53.1,106.9,52.5,107.3,52z"/>
		<path class="st0" d="M149.7,53.7l-1-1.7C149.1,52.5,149.4,53.1,149.7,53.7z"/>
	</g>
	<path class="st1" d="M152.5,65.1c0,2.8-0.5,5.5-1.4,8c-1.3,3.6-3.3,6.8-6,9.5c-1.2,1.2-2.5,2.2-4,3.1c-3.8,2.5-8.4,3.9-13.2,3.9
		s-9.4-1.4-13.2-3.9c-1.4-0.9-2.8-2-4-3.1c-2.7-2.6-4.7-5.8-6-9.5c-0.9-2.5-1.4-5.2-1.4-8c0-4.1,1-8,2.8-11.4l1-1.7l10.6-18.4
		c4.5-7.7,15.7-7.7,20.2,0L148.7,52l1,1.7C151.5,57.1,152.5,61,152.5,65.1z"/>
</g>
<circle class="st2" cx="128" cy="128" r="122.6"/>
</svg>
